<svg xmlns="http://www.w3.org/2000/svg" viewBox="0 0 203.73 215.34"><defs><style>.a{fill:#fff;}.b{fill:none;stroke:#ccc;stroke-miterlimit:10;}.c{fill:#f64744;}.d{fill:#b5e0dd;}</style></defs><title>tictactoe</title><rect class="a" width="203.73" height="215.34" rx="5.07" ry="5.07"/><line class="b" x1="66.58" x2="66.58" y2="215.34"/><line class="b" x1="137.15" x2="137.15" y2="215.34"/><line class="b" x1="203.73" y1="70.37" y2="70.37"/><line class="b" x1="203.73" y1="144.97" y2="144.97"/><path class="c" d="M116.31,60.56L105.59,45.11,94.87,60.56H82.06L99.21,36.15,84.92,15.2H97.23l8.36,12.37,8.36-12.37h12.87L112,36.15l17.71,24.42H116.31Z" transform="translate(-4 -4.23)"/><path class="c" d="M186.93,136.52l-10.72-15.45-10.72,15.45H152.67l17.16-24.42-14.3-20.95h12.32l8.36,12.37,8.36-12.37h12.87l-14.85,20.95,17.71,24.42H186.93Z" transform="translate(-4 -4.23)"/><path class="c" d="M48.43,136.49L37.71,121,27,136.49H14.17l17.16-24.42L17,91.13H29.35l8.36,12.37,8.36-12.37H58.93L44.09,112.08l17.71,24.42H48.43Z" transform="translate(-4 -4.23)"/><path class="d" d="M105.9,89.34c13.12,0,23.78,10.66,23.78,24.47s-10.2,24.52-23.78,24.52c-14,0-23.84-10.72-23.84-24.52A24.07,24.07,0,0,1,105.9,89.34Zm0,38.57c8.59,0,12.15-7,12.15-14.1s-3.78-14.1-12.15-14.1-12.21,7.05-12.21,14.1S97.07,127.91,105.9,127.91Z" transform="translate(-4 -4.23)"/><path class="d" d="M176.51,160.87c13.12,0,23.78,10.66,23.78,24.47s-10.2,24.52-23.78,24.52c-14,0-23.84-10.72-23.84-24.52A24.07,24.07,0,0,1,176.51,160.87Zm0,38.57c8.59,0,12.15-7,12.15-14.1s-3.78-14.1-12.15-14.1-12.21,7.05-12.21,14.1S167.69,199.44,176.51,199.44Z" transform="translate(-4 -4.23)"/><path class="d" d="M38,13.38c13.12,0,23.78,10.66,23.78,24.47S51.59,62.38,38,62.38c-14,0-23.84-10.72-23.84-24.52A24.07,24.07,0,0,1,38,13.38Zm0,38.57c8.59,0,12.15-7,12.15-14.1S46.38,23.75,38,23.75,25.81,30.8,25.81,37.85,29.19,51.95,38,51.95Z" transform="translate(-4 -4.23)"/></svg>